#!OML:ASF I:\golf\golf\golf 2\Subject 1\2002-09-07\Subject1.ASF
:FULLY-SPECIFIED
:DEGREES
184
root -7.72588 17.6874 2.75946 2.01262 51.314 -15.3272
lowerback 3.37599 -10.0697 -11.4465
upperback 1.04788 -13.6982 -0.886554
thorax 1.6585 -6.92297 5.21997
lowerneck -6.34682 19.4855 2.60956
upperneck 13.6405 29.2214 -16.1798
head 8.14009 12.9803 -2.41742
rclavicle -7.07673e-014 -2.22639e-014
rhumerus 19.6663 -12.5759 -74.4017
rradius 105.454
rwrist -1.5246
rhand -59.69 58.2707
rfingers 7.12502
rthumb -31.8567 31.0361
lclavicle -7.07673e-014 -2.22639e-014
lhumerus 102.136 -44.9677 43.1525
lradius 30.5785
lwrist -17.085
lhand 142.114 180.672
lfingers 7.12502
lthumb -190.929 210.368
rfemur -35.6004 16.929 24.2689
rtibia 34.0652
rfoot -9.85927 16.2048
rtoes 21.4863
lfemur -3.53242 5.2662 3.7071
ltibia 18.4734
lfoot -13.7254 28.8365
ltoes -12.9505
185
root -7.71803 17.6985 2.78727 2.19825 50.9325 -15.224
lowerback 3.28304 -10.0939 -11.32
upperback 0.996744 -13.718 -0.939609
thorax 1.61624 -6.92648 5.09256
lowerneck -6.88331 19.5532 2.47077
upperneck 13.8418 29.3135 -15.8343
head 8.22919 12.9916 -2.23131
rclavicle -3.22031e-014 -3.18055e-015
rhumerus 20.3481 -13.1484 -73.5587
rradius 105.788
rwrist -0.00833515
rhand -59.9632 59.79
rfingers 7.12502
rthumb -32.1168 32.6076
lclavicle -3.22031e-014 -3.18055e-015
lhumerus 102.97 -44.6905 43.1536
lradius 30.8665
lwrist -17.5166
lhand 141.473 180.323
lfingers 7.12502
lthumb -191.547 209.985
rfemur -35.5354 17.3221 24.2617
rtibia 33.8695
rfoot -9.80594 16.236
rtoes 21.6482
lfemur -3.54138 5.36274 3.73871
ltibia 18.6438
lfoot -12.7206 29.2496
ltoes -15.5886
186
root -7.70868 17.7139 2.8127 2.4882 50.571 -14.9242
lowerback 3.2217 -10.051 -11.2885
upperback 0.972529 -13.65 -1.11531
thorax 1.56183 -6.88413 4.89912
lowerneck -7.42157 19.5717 2.70958
upperneck 14.2693 29.3548 -15.5035
head 8.44666 12.9751 -2.08199
rclavicle 9.70069e-014 2.54444e-014
rhumerus 20.8638 -14.0411 -72.7968
rradius 106.15
rwrist 1.23092
rhand -59.8514 61.0413
rfingers 7.12502
rthumb -32.0104 33.8374
lclavicle 9.70069e-014 2.54444e-014
lhumerus 104.04 -44.5581 42.8996
lradius 31.2442
lwrist -17.6643
lhand 140.88 179.433
lfingers 7.12502
lthumb -192.12 209.062
rfemur -35.4354 17.5215 24.1684
rtibia 33.7413
rfoot -9.67658 16.4107
rtoes 22.0184
lfemur -3.57761 5.59398 3.62586
ltibia 18.6987
lfoot -10.9088 29.8328
ltoes -19.4396
187
root -7.69951 17.7171 2.83187 2.8211 50.2222 -14.5573
lowerback 3.25514 -10.0951 -11.4025
upperback 0.852134 -13.7235 -1.17011
thorax 1.44106 -6.90934 4.91649
lowerneck -7.31014 19.6582 2.87141
upperneck 14.0727 29.4363 -15.6169
head 8.41136 13.0335 -2.13366
rclavicle -8.15017e-014 1.27222e-014
rhumerus 21.401 -14.6953 -71.9956
rradius 106.502
rwrist 2.10435
rhand -59.4156 61.7447
rfingers 7.12502
rthumb -31.5954 34.4585
lclavicle -8.15017e-014 1.27222e-014
lhumerus 104.452 -44.3859 43.3484
lradius 31.5564
lwrist -18.0984
lhand 140.433 178.471
lfingers 7.12502
lthumb -192.55 208.074
rfemur -35.39 17.6377 24.0217
rtibia 33.6964
rfoot -9.62134 16.6168
rtoes 21.9261
lfemur -3.34736 5.80886 3.46927
ltibia 18.6388
lfoot -11.46 29.5063
ltoes -17.4139
188
root -7.69443 17.709 2.84893 3.08259 49.9231 -14.3209
lowerback 3.30317 -10.212 -11.4958
upperback 0.714079 -13.8996 -1.10942
thorax 1.33516 -6.98822 5.03577
lowerneck -6.99351 19.7671 2.80806
upperneck 13.4242 29.5134 -15.9671
head 8.197 13.1136 -2.26929
rclavicle -6.0033e-014 -1.27222e-014
rhumerus 22.0555 -15.0528 -71.156
rradius 106.865
rwrist 3.17585
rhand -59.4082 62.1259
rfingers 7.12502
rthumb -31.5883 34.8383
lclavicle -6.0033e-014 -1.27222e-014
lhumerus 104.484 -44.1652 44.248
lradius 31.7035
lwrist -19.1593
lhand 139.942 177.809
lfingers 7.12502
lthumb -193.023 207.383
rfemur -35.4617 17.8295 23.909
rtibia 33.7296
rfoot -9.62745 16.7556
rtoes 22.0048
lfemur -2.90074 5.71265 3.43113
ltibia 18.4614
lfoot -14.0395 28.3215
ltoes -10.4488
189
root -7.69093 17.7107 2.86758 3.41022 49.6392 -14.0286
lowerback 3.36095 -10.2628 -11.5376
upperback 0.530033 -13.9895 -1.15342
thorax 1.12234 -7.01409 5.04148
lowerneck -6.61656 19.8288 2.8289
upperneck 12.866 29.4938 -16.137
head 7.97518 13.1644 -2.38256
rclavicle 3.73715e-014 1.59028e-014
rhumerus 22.4518 -15.5875 -70.2338
rradius 107.266
rwrist 4.41031
rhand -59.7674 63.0776
rfingers 7.12502
rthumb -31.9304 35.8577
lclavicle 3.73715e-014 1.59028e-014
lhumerus 104.686 -44.1794 44.9521
lradius 31.8485
lwrist -20.0292
lhand 139.678 176.806
lfingers 7.12502
lthumb -193.278 206.363
rfemur -35.578 18.035 23.7373
rtibia 33.8121
rfoot -9.60228 16.9174
rtoes 22.8569
lfemur -2.54196 5.53698 3.32563
ltibia 18.1776
lfoot -14.1315 28.0874
ltoes -10.6846
190
root -7.68369 17.717 2.88651 3.79691 49.3739 -13.6245
lowerback 3.3535 -10.1195 -11.5795
upperback 0.318791 -13.8106 -1.46751
thorax 0.803517 -6.89325 4.79007
lowerneck -6.12067 19.7807 3.58983
upperneck 12.8011 29.3335 -16.1292
head 7.95944 13.1576 -2.53
rclavicle 1.07344e-013 6.36111e-015
rhumerus 22.1006 -16.797 -69.1783
rradius 107.822
rwrist 5.26783
rhand -60.0745 64.774
rfingers 7.12502
rthumb -32.2227 37.613
lclavicle 1.07344e-013 6.36111e-015
lhumerus 105.629 -44.7292 44.7792
lradius 32.2385
lwrist -19.6774
lhand 139.859 175.399
lfingers 7.12502
lthumb -193.103 204.967
rfemur -35.5863 18.1127 23.5254
rtibia 33.7953
rfoot -9.5528 17.184
rtoes 23.5218
lfemur -2.45602 5.33515 3.10601
ltibia 18.0844
lfoot -12.776 28.6835
ltoes -14.7942
191
root -7.67279 17.7185 2.90526 4.1119 49.1256 -13.3093
lowerback 3.15968 -9.6821 -11.4217
upperback 0.152284 -13.2032 -2.14268
thorax 0.438322 -6.55284 4.06774
lowerneck -5.60929 19.4898 5.34738
upperneck 13.1183 28.839 -16.081
head 8.16638 13.0088 -2.80095
rclavicle -2.26615e-014 1.27222e-014
rhumerus 20.8259 -18.9123 -67.9884
rradius 108.421
rwrist 6.20006
rhand -60.3853 66.1294
rfingers 7.12502
rthumb -32.5185 39.0288
lclavicle -2.26615e-014 1.27222e-014
lhumerus 107.83 -45.9859 43.2329
lradius 32.7613
lwrist -19.1376
lhand 139.527 174.672
lfingers 7.12502
lthumb -193.424 204.22
rfemur -35.5546 18.1217 23.3993
rtibia 33.7409
rfoot -9.52426 17.4756
rtoes 23.7612
lfemur -2.55443 4.98527 2.9473
ltibia 18.0354
lfoot -12.0408 29.5091
ltoes -16.5472
192
root -7.66331 17.737 2.93003 4.25822 48.8235 -13.1956
lowerback 3.30619 -10.4599 -11.7451
upperback 0.341626 -14.2643 -1.12067
thorax 1.0575 -7.1409 5.16541
lowerneck -7.45315 20.1869 1.99895
upperneck 12.5501 29.9554 -15.831
head 7.88272 13.3438 -2.07921
rclavicle 2.34566e-014 -4.45278e-014
rhumerus 24.0522 -17.3205 -67.5023
rradius 108.107
rwrist 7.56785
rhand -60.7827 66.4325
rfingers 7.12502
rthumb -32.8966 39.4106
lclavicle 2.34566e-014 -4.45278e-014
lhumerus 106.605 -43.1647 45.1976
lradius 32.6858
lwrist -20.4673
lhand 138.367 173.963
lfingers 7.12502
lthumb -194.542 203.433
rfemur -35.4578 18.3751 23.3857
rtibia 33.6441
rfoot -9.50644 17.5452
rtoes 23.9022
lfemur -2.30551 5.60549 2.92237
ltibia 18.0048
lfoot -11.8851 29.1065
ltoes -16.3147
193
root -7.65543 17.7357 2.95096 4.30737 48.5591 -13.133
lowerback 3.26562 -10.453 -11.5744
upperback 0.217367 -14.2526 -1.29383
thorax 0.860835 -7.11596 4.92247
lowerneck -6.67735 20.1442 2.63291
upperneck 12.2431 29.7924 -16.0738
head 7.76686 13.3486 -2.32081
rclavicle -1.19271e-014 1.27222e-014
rhumerus 24.031 -18.0718 -66.7899
rradius 108.325
rwrist 8.76586
rhand -61.0109 66.7434
rfingers 7.12502
rthumb -33.1137 39.7672
lclavicle -1.19271e-014 1.27222e-014
lhumerus 107.167 -43.327 45.0605
lradius 32.8234
lwrist -21.4473
lhand 137.286 173.08
lfingers 7.12502
lthumb -195.583 202.473
rfemur -35.3665 18.7258 23.3584
rtibia 33.5727
rfoot -9.4134 17.5335
rtoes 24.3788
lfemur -1.91273 5.66587 2.99133
ltibia 18.041
lfoot -13.3602 28.1034
ltoes -12.2662
